<svg width="88" height="88" viewBox="0 0 88 88" fill="none" xmlns="http://www.w3.org/2000/svg">
<path d="M0 9.77778V78.2222C0 80.8154 1.03016 83.3025 2.86384 85.1362C4.69753 86.9698 7.18455 88 9.77778 88H78.2222C83.6 88 88 83.6 88 78.2222V9.77778C88 4.4 83.6 0 78.2222 0H9.77778C7.18455 0 4.69753 1.03016 2.86384 2.86384C1.03016 4.69753 0 7.18455 0 9.77778ZM58.6667 29.3333C58.6667 37.4489 52.1156 44 44 44C35.8844 44 29.3333 37.4489 29.3333 29.3333C29.3333 21.2178 35.8844 14.6667 44 14.6667C52.1156 14.6667 58.6667 21.2178 58.6667 29.3333ZM14.6667 68.4444C14.6667 58.6667 34.2222 53.2889 44 53.2889C53.7778 53.2889 73.3333 58.6667 73.3333 68.4444V73.3333H14.6667V68.4444Z" fill="#FFCE31"/>
<path d="M43.088 21.224C45.632 21.224 47.488 21.712 48.656 22.688C49.824 23.664 50.408 25.168 50.408 27.2C50.408 29.232 49.808 30.72 48.608 31.664C47.424 32.608 45.6 33.08 43.136 33.08H40.16V38H37.328V21.224H43.088ZM43.448 30.512C45.016 30.512 46.08 30.216 46.64 29.624C47.216 29.016 47.504 28.136 47.504 26.984C47.504 25.816 47.144 24.992 46.424 24.512C45.704 24.032 44.576 23.792 43.04 23.792H40.16V30.512H43.448Z" fill="#FFCE31"/>
</svg>
