<svg width="88" height="88" viewBox="0 0 88 88" fill="none" xmlns="http://www.w3.org/2000/svg">
<path d="M43.392 23.432C42.576 23.432 41.904 23.6 41.376 23.936C40.848 24.272 40.584 24.784 40.584 25.472C40.584 26.144 40.848 26.664 41.376 27.032C41.904 27.384 43.024 27.768 44.736 28.184C46.464 28.6 47.76 29.184 48.624 29.936C49.504 30.688 49.944 31.8 49.944 33.272C49.944 34.728 49.392 35.912 48.288 36.824C47.184 37.736 45.736 38.192 43.944 38.192C41.32 38.192 38.992 37.288 36.96 35.48L38.736 33.344C40.432 34.816 42.192 35.552 44.016 35.552C44.928 35.552 45.648 35.36 46.176 34.976C46.72 34.576 46.992 34.056 46.992 33.416C46.992 32.76 46.736 32.256 46.224 31.904C45.728 31.536 44.864 31.208 43.632 30.92C42.4 30.616 41.464 30.344 40.824 30.104C40.184 29.848 39.616 29.52 39.12 29.12C38.128 28.368 37.632 27.216 37.632 25.664C37.632 24.112 38.192 22.92 39.312 22.088C40.448 21.24 41.848 20.816 43.512 20.816C44.584 20.816 45.648 20.992 46.704 21.344C47.76 21.696 48.672 22.192 49.44 22.832L47.928 24.968C47.432 24.52 46.76 24.152 45.912 23.864C45.064 23.576 44.224 23.432 43.392 23.432Z" fill="#007C4B"/>
<path d="M0 9.77778V78.2222C0 80.8154 1.03016 83.3025 2.86384 85.1362C4.69753 86.9698 7.18455 88 9.77778 88H78.2222C83.6 88 88 83.6 88 78.2222V9.77778C88 4.4 83.6 0 78.2222 0H9.77778C7.18455 0 4.69753 1.03016 2.86384 2.86384C1.03016 4.69753 0 7.18455 0 9.77778ZM58.6667 29.3333C58.6667 37.4489 52.1156 44 44 44C35.8844 44 29.3333 37.4489 29.3333 29.3333C29.3333 21.2178 35.8844 14.6667 44 14.6667C52.1156 14.6667 58.6667 21.2178 58.6667 29.3333ZM14.6667 68.4444C14.6667 58.6667 34.2222 53.2889 44 53.2889C53.7778 53.2889 73.3333 58.6667 73.3333 68.4444V73.3333H14.6667V68.4444Z" fill="#007C4B"/>
</svg>
